# xmcd CD database file
#
# Track frame offsets:
#	150
#	39155
#	110292
#	136755
#	162460
#
# Disc length: 2434 seconds
#
# Revision: 0
# Processed by: cddbd v1.5PL3 Copyright (c) Steve Scherf et al.
# Submitted via: CDex 1.50beta9
#
DISCID=34098005
DTITLE=Jimmy McGriff and Lucky Thompson - Friday The 13th Cook County Jail
DYEAR=1972
DGENRE=Jazz
TTITLE0=Freedom Suite Part 1
TTITLE1=Freedom Suite Part 2
TTITLE2=Green Dolphin Street
TTITLE3=Everything Happens To Me
TTITLE4=Cherokee
EXTD=YEAR: 1972
EXTT0=
EXTT1=
EXTT2=
EXTT3=
EXTT4=
PLAYORDER=
